#!OML:ASF H:\Terrain\Patient Classification 1\Terrain2\Thursday\justin.ASF
:FULLY-SPECIFIED
:DEGREES
2516
root 20.0539 23.8161 14.5042 715.648 -1.56806 354.51
lowerback 6.27222 0.287991 3.33705
upperback 1.79428 0.663952 3.56469
thorax -1.6712 0.323987 1.74933
lowerneck -13.5491 -3.07357 -9.74344
upperneck 38.9111 -4.07738 6.06516
head 16.6694 -2.31697 3.72609
rclavicle 1.08959e-014 1.94809e-014
rhumerus -35.1407 -12.4941 -77.9391
rradius 30.6069
rwrist -12.4369
rhand -20.4012 11.8429
rfingers 7.12502
rthumb 5.95245 -18.0534
lclavicle 1.08959e-014 1.94809e-014
lhumerus -34.6387 8.15877 86.4624
lradius 25.4405
lwrist -1.27187
lhand -21.0818 27.5175
lfingers 7.12502
lthumb 5.29533 57.4313
rfemur 9.83407 -2.17094 26.112
rtibia 38.7012
rfoot -7.34067 4.31157
rtoes -4.54195
lfemur -21.1142 -3.05654 -12.3602
ltibia 25.5122
lfoot 2.4918 -11.7374
ltoes 9.38407
2517
root 20.0875 23.8396 14.6232 715.506 -1.68957 355.202
lowerback 6.26424 0.323434 2.77852
upperback 1.90859 0.666719 3.37818
thorax -1.55347 0.327336 1.86944
lowerneck -13.3994 -3.10434 -10.2004
upperneck 38.525 -4.22906 6.68254
head 16.4765 -2.3592 4.04485
rclavicle 1.3977e-014 -2.14687e-014
rhumerus -35.1693 -13.1771 -77.5512
rradius 29.6592
rwrist -12.0546
rhand -20.295 11.6833
rfingers 7.12502
rthumb 6.05502 -18.2102
lclavicle 1.3977e-014 -2.14687e-014
lhumerus -34.4639 8.1548 86.4958
lradius 25.0769
lwrist -1.25207
lhand -21.2222 27.5199
lfingers 7.12502
lthumb 5.15981 57.4371
rfemur 9.23591 -2.32829 24.9544
rtibia 40.3205
rfoot -5.62735 4.74065
rtoes -3.45661
lfemur -20.4603 -3.0337 -13.3434
ltibia 25.4384
lfoot 2.69611 -11.7011
ltoes 11.7383
2518
root 20.1133 23.8599 14.7317 715.479 -1.89196 355.273
lowerback 6.35984 0.406935 2.84147
upperback 1.92966 0.785227 3.35767
thorax -1.58529 0.386247 1.80352
lowerneck -13.5138 -3.20021 -10.2123
upperneck 38.5488 -4.31779 6.5728
head 16.5282 -2.41133 3.9824
rclavicle 1.68967e-015 -3.18055e-015
rhumerus -35.2591 -14.0211 -77.0941
rradius 28.5328
rwrist -12.0181
rhand -20.5092 12.6416
rfingers 7.12502
rthumb 5.84823 -17.2577
lclavicle 1.68967e-015 -3.18055e-015
lhumerus -34.3165 8.18537 86.5366
lradius 24.6104
lwrist -1.29903
lhand -21.5318 27.1066
lfingers 7.12502
lthumb 4.8609 57.0308
rfemur 8.46554 -2.29256 24.6601
rtibia 41.9688
rfoot -3.75611 4.83746
rtoes -2.29899
lfemur -19.9447 -2.94609 -13.5423
ltibia 25.2941
lfoot 2.68463 -11.538
ltoes 11.3183
2519
root 20.1334 23.8787 14.8315 715.508 -2.15385 355.264
lowerback 6.45348 0.525169 3.0202
upperback 1.94552 0.956708 3.29787
thorax -1.61888 0.471443 1.62774
lowerneck -13.4761 -3.21253 -10.1778
upperneck 38.3196 -4.38507 6.68558
head 16.4067 -2.41386 4.00452
rclavicle -2.82274e-014 -2.82274e-014
rhumerus -35.3492 -14.9722 -76.6884
rradius 27.4542
rwrist -11.7475
rhand -20.8132 13.0108
rfingers 7.12502
rthumb 5.55471 -16.8964
lclavicle -2.82274e-014 -2.82274e-014
lhumerus -34.0602 7.9546 86.5821
lradius 24.1959
lwrist -1.42871
lhand -21.3036 27.6581
lfingers 7.12502
lthumb 5.08123 57.5772
rfemur 7.53814 -2.19543 24.5114
rtibia 43.6562
rfoot -1.83868 4.87746
rtoes -0.790737
lfemur -19.4854 -2.96024 -13.5757
ltibia 25.1781
lfoot 2.04554 -11.6386
ltoes 8.32916
2520
root 20.1538 23.8975 14.9269 715.576 -2.51944 355.51
lowerback 6.57003 0.594379 2.79599
upperback 1.89456 1.04176 3.26028
thorax -1.74038 0.513057 1.70651
lowerneck -13.5672 -3.12962 -9.99981
upperneck 38.3578 -4.20704 6.43329
head 16.4129 -2.3471 3.89111
rclavicle 1.92324e-014 -5.96354e-015
rhumerus -35.4089 -15.353 -76.3727
rradius 26.4884
rwrist -11.41
rhand -20.9922 12.9487
rfingers 7.12502
rthumb 5.38185 -16.9629
lclavicle 1.92324e-014 -5.96354e-015
lhumerus -34.0319 8.1337 86.5368
lradius 24.057
lwrist -1.82893
lhand -21.2742 28.3245
lfingers 7.12502
lthumb 5.10956 58.2429
rfemur 6.53005 -2.02644 24.0832
rtibia 45.3792
rfoot -0.0405135 5.15625
rtoes -0.789686
lfemur -19.0694 -3.03177 -13.8725
ltibia 25.1681
lfoot 1.1683 -11.7925
ltoes 5.73623
2521
root 20.1695 23.9127 15.0271 715.609 -2.9698 355.726
lowerback 6.65037 0.670776 2.50063
upperback 1.85829 1.12958 3.27358
thorax -1.82954 0.556735 1.87781
lowerneck -13.7946 -3.15853 -9.94957
upperneck 38.5996 -4.1213 6.09322
head 16.5786 -2.35351 3.7534
rclavicle -1.49089e-016 -1.15295e-014
rhumerus -35.4486 -15.6295 -76.0309
rradius 25.5978
rwrist -10.791
rhand -20.842 13.2396
rfingers 7.12502
rthumb 5.52693 -16.6683
lclavicle -1.49089e-016 -1.15295e-014
lhumerus -34.0423 8.39946 86.468
lradius 23.892
lwrist -1.86284
lhand -23.3103 27.3995
lfingers 7.12502
lthumb 3.14344 57.356
rfemur 5.53591 -1.7966 23.782
rtibia 47.1674
rfoot 1.37657 5.52076
rtoes -4.0924
lfemur -18.5779 -2.86523 -14.1492
ltibia 25.1004
lfoot 0.490485 -11.8114
ltoes 3.25078
2522
root 20.1914 23.9253 15.1264 715.658 -3.23734 355.978
lowerback 6.63223 0.716089 2.34988
upperback 1.86969 1.17591 3.16006
thorax -1.80909 0.580258 1.84148
lowerneck -13.8536 -3.21446 -9.89835
upperneck 38.4939 -4.19823 6.04588
head 16.5435 -2.38224 3.70362
rclavicle -1.04362e-014 -4.09496e-014
rhumerus -35.4815 -16.2959 -75.7001
rradius 24.8407
rwrist -9.70646
rhand -20.765 12.949
rfingers 7.12502
rthumb 5.60122 -16.957
lclavicle -1.04362e-014 -4.09496e-014
lhumerus -33.8649 8.28005 86.3486
lradius 23.6509
lwrist -1.88791
lhand -23.8764 27.0124
lfingers 7.12502
lthumb 2.59671 56.9764
rfemur 4.49586 -1.68668 23.3621
rtibia 49.0143
rfoot 2.58966 5.72541
rtoes -5.78839
lfemur -18.0655 -2.71631 -14.5606
ltibia 24.8202
lfoot 0.312299 -11.5135
ltoes 2.50211
2523
root 20.2044 23.9541 15.2221 715.758 -3.61715 356.208
lowerback 6.61747 0.856113 2.12939
upperback 1.85131 1.34578 3.0722
thorax -1.8255 0.665395 1.86067
lowerneck -13.815 -3.23399 -9.8203
upperneck 38.3646 -4.27084 6.08858
head 16.4715 -2.39303 3.69018
rclavicle -9.19379e-015 -2.22639e-014
rhumerus -35.5954 -17.041 -75.3275
rradius 24.0986
rwrist -8.58988
rhand -20.8416 12.8297
rfingers 7.12502
rthumb 5.52726 -17.0783
lclavicle -9.19379e-015 -2.22639e-014
lhumerus -33.7778 8.18234 86.2071
lradius 23.6261
lwrist -2.27982
lhand -21.5722 28.073
lfingers 7.12502
lthumb 4.82186 57.9981
rfemur 3.28206 -1.30234 23.0261
rtibia 50.864
rfoot 3.96431 5.52996
rtoes -2.25958
lfemur -17.5468 -2.5366 -14.8423
ltibia 24.4332
lfoot 0.540813 -10.9785
ltoes 5.05115
2524
root 20.2185 24.0007 15.3145 715.823 -3.85077 356.637
lowerback 6.6694 0.933048 1.66413
upperback 1.82188 1.41902 3.00743
thorax -1.89582 0.702917 2.04791
lowerneck -13.8376 -3.21542 -9.94831
upperneck 38.3658 -4.24894 6.21183
head 16.4832 -2.38621 3.7731
rclavicle 6.21202e-016 -4.13472e-014
rhumerus -35.6055 -17.5791 -74.9052
rradius 23.2252
rwrist -7.42282
rhand -20.5325 13.4348
rfingers 7.12502
rthumb 5.82568 -16.4651
lclavicle 6.21202e-016 -4.13472e-014
lhumerus -33.7654 8.34612 86.1559
lradius 23.7183
lwrist -2.31268
lhand -20.2308 28.7224
lfingers 7.12502
lthumb 6.11701 58.6141
rfemur 2.11015 -1.03059 22.359
rtibia 52.5955
rfoot 5.27466 5.0276
rtoes 5.17936
lfemur -16.9521 -2.31228 -15.3909
ltibia 23.9406
lfoot 0.541142 -10.8226
ltoes 5.96154
2525
root 20.2372 24.0348 15.4055 715.875 -3.98092 356.942
lowerback 6.72466 0.889032 1.40317
upperback 1.80639 1.3439 2.94823
thorax -1.94536 0.666075 2.13862
lowerneck -13.8893 -3.09605 -10.0069
upperneck 38.3695 -4.08069 6.30555
head 16.4808 -2.31265 3.85636
rclavicle 2.27111e-014 2.38542e-014
rhumerus -35.5414 -18.0497 -74.576
rradius 22.4861
rwrist -6.24687
rhand -20.2395 13.4578
rfingers 7.12502
rthumb 6.10864 -16.4341
lclavicle 2.27111e-014 2.38542e-014
lhumerus -33.829 8.54821 86.0337
lradius 23.9314
lwrist -2.30972
lhand -20.1198 28.7927
lfingers 7.12502
lthumb 6.22417 58.6812
rfemur 1.10537 -0.845094 21.8653
rtibia 54.1875
rfoot 5.9043 3.82166
rtoes 11.5785
lfemur -16.3724 -2.16055 -15.8527
ltibia 23.4281
lfoot 0.484928 -10.7804
ltoes 5.55734
2526
root 20.2515 24.0651 15.4973 715.915 -4.13617 356.915
lowerback 6.75979 0.879749 1.54616
upperback 1.81007 1.34117 2.90916
thorax -1.9568 0.664129 2.01761
lowerneck -13.8188 -3.02824 -9.90196
upperneck 38.2795 -4.00039 6.26743
head 16.3998 -2.26824 3.8301
rclavicle 4.5969e-015 -6.75868e-015
rhumerus -35.6059 -18.6427 -74.292
rradius 21.9678
rwrist -5.20036
rhand -20.0974 13.1821
rfingers 7.12502
rthumb 6.24583 -16.7059
lclavicle 4.5969e-015 -6.75868e-015
lhumerus -33.931 8.34597 85.922
lradius 24.2019
lwrist -2.25349
lhand -20.6723 28.5309
lfingers 7.12502
lthumb 5.69075 58.4345
rfemur 0.25682 -1.03106 21.7771
rtibia 55.6359
rfoot 5.53997 2.69665
rtoes 9.79258
lfemur -15.7804 -2.03582 -15.9145
ltibia 22.9822
lfoot 0.395319 -10.6576
ltoes 5.30375
2527
root 20.2575 24.0822 15.5839 715.9 -4.3103 356.79
lowerback 6.81222 0.830981 1.60498
upperback 1.85297 1.28095 2.93654
thorax -1.9396 0.633782 2.01755
lowerneck -14.0199 -2.95846 -9.45111
upperneck 38.4379 -3.82448 5.75833
head 16.4844 -2.19953 3.55643
rclavicle 9.98893e-015 -3.37934e-014
rhumerus -35.613 -18.8829 -74.2209
rradius 21.5276
rwrist -4.33372
rhand -19.7907 13.3728
rfingers 7.12502
rthumb 6.54189 -16.5061
lclavicle 9.98893e-015 -3.37934e-014
lhumerus -33.9522 8.1816 85.8188
lradius 24.3038
lwrist -1.82642
lhand -21.8437 28.1174
lfingers 7.12502
lthumb 4.55971 58.0483
rfemur -0.541344 -1.38455 21.8116
rtibia 57.0584
rfoot 4.34274 1.64016
rtoes 4.25967
lfemur -15.2348 -1.95075 -15.8179
ltibia 22.7016
lfoot -0.0170819 -10.6702
ltoes 4.94895
2528
root 20.2646 24.0896 15.6667 715.836 -4.41939 356.82
lowerback 6.92409 0.724616 1.45124
upperback 1.913 1.13132 2.98092
thorax -1.94021 0.559344 2.16163
lowerneck -14.2028 -2.79622 -9.17276
upperneck 38.5888 -3.50745 5.38773
head 16.5561 -2.07972 3.40138
rclavicle 1.3741e-014 1.82882e-014
rhumerus -35.5556 -18.8317 -74.2154
rradius 21.1953
rwrist -3.68039
rhand -19.4224 13.6437
rfingers 7.12502
rthumb 6.89741 -16.224
lclavicle 1.3741e-014 1.82882e-014
lhumerus -33.8767 8.30145 85.6912
lradius 24.4295
lwrist -1.58526
lhand -21.8777 28.4344
lfingers 7.12502
lthumb 4.52686 58.3661
rfemur -1.39473 -1.85792 21.6297
rtibia 58.4387
rfoot 2.63077 0.100329
rtoes 3.59176
lfemur -14.6951 -1.91431 -15.8975
ltibia 22.4224
lfoot -0.288371 -10.7991
ltoes 5.7642
